<?xml version="1.0"?>
<svg xmlns="http://www.w3.org/2000/svg" viewBox="0 0 779.23 151.94">
  <defs>
    <style>.cls-1{fill:#d7e9ff;}.cls-2,.cls-5{fill:#fff;}.cls-3{fill:#94c1ff;}.cls-4{fill:#5c9eff;}.cls-5{opacity:0.5;}.cls-6{fill:#2287ff;}.cls-7{fill:none;stroke:#116fff;stroke-linecap:round;stroke-linejoin:round;}</style>
  </defs>
  <g id="Layer_2" data-name="Layer 2">
    <g id="Layer_1-2" data-name="Layer 1">
      <g id="_20._cosmonaut_suit_space_star_astronomy_discovery" data-name="20. cosmonaut, suit, space, star, astronomy, discovery">
        <circle class="cls-1" cx="114.87" cy="6.22" r="5.72"/>
        <path class="cls-2" d="M111.05,6.22A5.71,5.71,0,0,1,115.82.6a5,5,0,0,0-.95-.1,5.72,5.72,0,1,0,0,11.44,5,5,0,0,0,.95-.1A5.71,5.71,0,0,1,111.05,6.22Z"/>
        <path class="cls-3" d="M118.68,6.22a5.71,5.71,0,0,1-4.77,5.62,5,5,0,0,0,1,.1,5.72,5.72,0,0,0,0-11.44,5,5,0,0,0-1,.1A5.71,5.71,0,0,1,118.68,6.22Z"/>
        <path class="cls-4" d="M114.87,77.07h-7.63a3.81,3.81,0,0,0,0-7.62H99.62a3.82,3.82,0,0,0,0-7.63H88.18a3.81,3.81,0,0,0,0-7.62h21a3.82,3.82,0,0,0,0-7.63H99.62a3.81,3.81,0,1,0,0-7.62H95.8a3.82,3.82,0,1,0,0-7.63h19.07a3.81,3.81,0,1,0,0-7.62h-7.63a3.82,3.82,0,0,0,0-7.63H99.62a3.81,3.81,0,1,0,0-7.62H93.9a3.81,3.81,0,0,0,0-7.62H36.72a3.81,3.81,0,1,0,0,7.62H23.37a3.81,3.81,0,0,0,0,7.62H19.56a3.82,3.82,0,0,0,0,7.63H31a3.81,3.81,0,0,0,0,7.62H10A3.82,3.82,0,0,0,10,39h9.53a3.81,3.81,0,0,0,0,7.62H10a3.82,3.82,0,0,0,0,7.63H6.22a3.81,3.81,0,1,0,0,7.62h9.53a3.82,3.82,0,0,0,0,7.63H11.94a3.81,3.81,0,1,0,0,7.62H31a3.81,3.81,0,1,0,0,7.62H23.37a3.82,3.82,0,0,0,0,7.63H88.18a3.82,3.82,0,0,0,0-7.63h26.69a3.81,3.81,0,0,0,0-7.62Z"/>
        <circle class="cls-2" cx="25.36" cy="107.17" r="5.72"/>
        <path class="cls-4" d="M72.93,107.24H48.15a3.8,3.8,0,0,0-3.81,3.81v-3.81a3.8,3.8,0,0,1,3.81-3.81H72.93a3.79,3.79,0,0,1,3.81,3.81v3.81A3.8,3.8,0,0,0,72.93,107.24Z"/>
        <circle class="cls-3" cx="94.85" cy="113.91" r="2.86"/>
        <path class="cls-3" d="M48.15,107.24H72.93a3.8,3.8,0,0,1,3.81,3.81v9.53H44.34v-9.53A3.8,3.8,0,0,1,48.15,107.24Z"/>
        <path class="cls-1" d="M50.06,107.24H48.15a3.8,3.8,0,0,0-3.81,3.81v9.53h1.91v-9.53A3.8,3.8,0,0,1,50.06,107.24Z"/>
        <path class="cls-4" d="M71,107.24h1.9a3.8,3.8,0,0,1,3.81,3.81v9.53h-1.9v-9.53A3.8,3.8,0,0,0,71,107.24Z"/>
        <circle class="cls-3" cx="94.85" cy="104.38" r="2.86"/>
        <path class="cls-1" d="M94.85,116.77A2.86,2.86,0,1,0,92,113.91,2.86,2.86,0,0,0,94.85,116.77Zm0-9.53A2.86,2.86,0,1,0,92,104.38,2.86,2.86,0,0,0,94.85,107.24ZM11.94,92c2.27-.86,5.79-2.11,9.53-3.58h1.9l.31,0c.74.53,3,1.85,8.27,3a85.61,85.61,0,0,0,11.44,1.71c3.28.31,7.07.54,11.43.65,1.81,0,3.72.06,5.72.06s3.91,0,5.72-.06c4.37-.11,8.16-.34,11.44-.65a84.91,84.91,0,0,0,11.43-1.71c5.68-1.3,7.84-2.71,8.41-3.17l.17.1h1.91c3.73,1.47,7.26,2.72,9.53,3.58,7.62,2.84,11.43,5.72,11.43,13.35v15.24H76.74V107.24a3.79,3.79,0,0,0-3.81-3.81H48.15a3.8,3.8,0,0,0-3.81,3.81v13.34H.5V105.34C.5,97.71,4.31,94.83,11.94,92Zm19.13,15.18a5.72,5.72,0,1,0-5.71,5.71A5.73,5.73,0,0,0,31.07,107.17Z"/>
        <path class="cls-5" d="M27.19,90.12a14.61,14.61,0,0,1-3.51-1.69l-.31,0h-1.9c-3.74,1.47-7.26,2.72-9.53,3.58C4.31,94.83.5,97.71.5,105.34v15.24H4.31V109.15c0-7.63,3.81-10.5,11.44-13.35,2.27-.85,9.74-3.55,13.48-5Z"/>
        <path class="cls-3" d="M93.9,90.12a15.05,15.05,0,0,0,3.51-1.69l.3,0h1.91c3.73,1.47,7.26,2.72,9.53,3.58,7.62,2.84,11.43,5.72,11.43,13.35v15.24h-3.81V109.15c0-7.63-3.81-10.5-11.43-13.35-2.27-.85-9.75-3.55-13.49-5Z"/>
        <path class="cls-3" d="M89.13,87.67A88.28,88.28,0,0,1,77.7,89.38c-3.28.31-7.07.54-11.44.65-1.81,0-3.72.06-5.72.06s-3.91,0-5.72-.06c-4.36-.11-8.15-.34-11.43-.65A89,89,0,0,1,32,87.67c-6.84-1.57-8.58-3.3-8.58-3.3v3.81a2.69,2.69,0,0,0,.31.25c.74.53,3,1.85,8.27,3a85.61,85.61,0,0,0,11.44,1.71c3.28.31,7.07.54,11.43.65,1.81,0,3.72.06,5.72.06s3.91,0,5.72-.06c4.37-.11,8.16-.34,11.44-.65a84.91,84.91,0,0,0,11.43-1.71c5.68-1.3,7.84-2.71,8.41-3.17a1.08,1.08,0,0,0,.17-.13V84.37S96,86.1,89.13,87.67Z"/>
        <circle class="cls-3" cx="39.57" cy="79.6" r="2.86"/>
        <circle class="cls-3" cx="81.51" cy="79.6" r="2.86"/>
        <path class="cls-1" d="M97.42,33.17a37.15,37.15,0,0,0-73.76,0,35.07,35.07,0,0,0-.29,4.5v46.7s1.74,1.73,8.58,3.3a89,89,0,0,0,11.44,1.71c3.28.31,7.07.54,11.43.65,1.81,0,3.72.06,5.72.06s3.91,0,5.72-.06c4.37-.11,8.16-.34,11.44-.65a88.28,88.28,0,0,0,11.43-1.71c6.85-1.57,8.58-3.3,8.58-3.3V37.67A33.35,33.35,0,0,0,97.42,33.17ZM39.57,82.46a2.86,2.86,0,1,1,2.86-2.86A2.84,2.84,0,0,1,39.57,82.46Zm41.94,0a2.86,2.86,0,1,1,2.86-2.86A2.85,2.85,0,0,1,81.51,82.46ZM92,61.5A9.53,9.53,0,0,1,82.46,71H38.62a9.53,9.53,0,0,1-9.53-9.53V34.81a7.89,7.89,0,0,1,.06-1,9.52,9.52,0,0,1,9.47-8.56H82.46a9.5,9.5,0,0,1,9.47,8.56,7.89,7.89,0,0,1,.06,1Z"/>
        <path class="cls-3" d="M91.93,33.84a9.5,9.5,0,0,0-9.47-8.56H38.62a9.52,9.52,0,0,0-9.47,8.56,7.89,7.89,0,0,0-.06,1V61.5A9.53,9.53,0,0,0,38.62,71H82.46A9.53,9.53,0,0,0,92,61.5V34.81A7.89,7.89,0,0,0,91.93,33.84Z"/>
        <path class="cls-4" d="M120.58,86.27v19.07c0-7.63-3.81-10.51-11.43-13.35-2.27-.86-5.8-2.11-9.53-3.58H97.41a.91.91,0,0,1,.13-.1,1.08,1.08,0,0,0,.17-.13V74.84h11.44A11.41,11.41,0,0,1,120.58,86.27Z"/>
        <path class="cls-4" d="M21.47,88.41c-3.74,1.47-7.26,2.72-9.53,3.58C4.31,94.83.5,97.71.5,105.34V86.27A11.42,11.42,0,0,1,11.94,74.84H23.37V88.18a2.69,2.69,0,0,0,.31.25l-.31,0Z"/>
        <path class="cls-3" d="M4.31,90.09A11.42,11.42,0,0,1,15.75,78.65h7.62V74.84H11.94A11.42,11.42,0,0,0,.5,86.27v19.07c0-4.4,1.28-7.22,3.81-9.36Z"/>
        <path class="cls-6" d="M116.77,90.09a11.42,11.42,0,0,0-11.43-11.44H97.71V74.84h11.44a11.41,11.41,0,0,1,11.43,11.43v19.07c0-4.4-1.27-7.22-3.81-9.36Z"/>
        <ellipse class="cls-4" cx="75.79" cy="65.38" rx="2.86" ry="1.91"/>
        <rect class="cls-1" x="19.56" y="38.62" width="3.81" height="7.62"/>
        <rect class="cls-3" x="97.71" y="38.62" width="3.81" height="7.62"/>
        <polygon class="cls-1" points="67.21 25.28 58.27 25.28 46.02 71.03 55.78 71.03 55.88 71.03 68.14 25.28 67.21 25.28"/>
        <polygon class="cls-1" points="59.83 71.03 72.09 25.28 70.12 25.28 57.86 71.03 59.83 71.03"/>
        <path class="cls-2" d="M27.19,84.37V37.67a35.08,35.08,0,0,1,.28-4.5A37.13,37.13,0,0,1,62.45.59C61.81.56,61.18.5,60.54.5A37.15,37.15,0,0,0,23.66,33.17a35.07,35.07,0,0,0-.29,4.5v46.7a11.46,11.46,0,0,0,3.82,1.93Z"/>
        <path class="cls-3" d="M93.9,84.37V37.67a35.07,35.07,0,0,0-.29-4.5A37.11,37.11,0,0,0,58.64.59c.63,0,1.26-.09,1.9-.09A37.14,37.14,0,0,1,97.42,33.17a33.35,33.35,0,0,1,.29,4.5v46.7A11.46,11.46,0,0,1,93.9,86.3Z"/>
        <path class="cls-1" d="M27.19,90.12V86.3a11.46,11.46,0,0,1-3.82-1.93v3.81a2.69,2.69,0,0,0,.31.25A14.61,14.61,0,0,0,27.19,90.12Z"/>
        <path class="cls-4" d="M93.9,90.12V86.3a11.46,11.46,0,0,0,3.81-1.93v3.81a2,2,0,0,1-.3.25A15.05,15.05,0,0,1,93.9,90.12Z"/>
        <g id="_20._cosmonaut_suit_space_star_astronomy_discovery-2" data-name="20. cosmonaut, suit, space, star, astronomy, discovery">
          <path class="cls-7" d="M99.62,88.41c3.74,1.46,7.26,2.74,9.53,3.58,7.62,2.85,11.43,5.72,11.43,13.35v15.24H.5V105.34C.5,97.71,4.31,94.84,11.94,92c2.26-.84,5.78-2.11,9.53-3.58"/>
          <polygon class="cls-7" points="4.31 4.31 4.31 4.31 4.31 4.31 4.31 4.31 4.31 4.31"/>
          <polygon class="cls-7" points="13.84 19.56 13.84 19.56 13.84 19.56 13.84 19.56 13.84 19.56"/>
          <polygon class="cls-7" points="116.86 61.49 116.86 61.49 116.86 61.49 116.86 61.49 116.86 61.49"/>
          <polygon class="cls-7" points="111.05 32.9 111.05 32.9 111.05 32.9 111.05 32.9 111.05 32.9"/>
          <polygon class="cls-7" points="90.09 0.83 90.09 0.83 90.09 0.83 90.09 0.83 90.09 0.83"/>
          <polygon class="cls-7" points="0.5 38.62 0.5 38.62 0.5 38.62 0.5 38.62 0.5 38.62"/>
          <line class="cls-7" x1="8.12" y1="55.78" x2="8.12" y2="63.4"/>
          <line class="cls-7" x1="6.22" y1="59.59" x2="10.03" y2="59.59"/>
          <path class="cls-7" d="M118.91,2.18a5.72,5.72,0,1,1-8.09,0A5.72,5.72,0,0,1,118.91,2.18Z"/>
          <path class="cls-7" d="M120.26.83c.74.74-1.07,3.76-4.05,6.74s-6,4.78-6.73,4"/>
          <path class="cls-7" d="M23.37,37.67a37.17,37.17,0,1,1,74.34,0"/>
          <line class="cls-7" x1="97.71" y1="37.7" x2="97.71" y2="82.46"/>
          <line class="cls-7" x1="23.37" y1="37.7" x2="23.37" y2="82.46"/>
          <line class="cls-7" x1="82.46" y1="71.03" x2="38.62" y2="71.03"/>
          <path class="cls-7" d="M29.09,34.81a9.52,9.52,0,0,1,9.53-9.53"/>
          <path class="cls-7" d="M82.46,25.28A9.52,9.52,0,0,1,92,34.81"/>
          <line class="cls-7" x1="38.62" y1="25.28" x2="82.46" y2="25.28"/>
          <path class="cls-7" d="M92,61.5A9.53,9.53,0,0,1,82.46,71"/>
          <path class="cls-7" d="M38.62,71a9.53,9.53,0,0,1-9.53-9.53"/>
          <line class="cls-7" x1="29.09" y1="34.81" x2="29.09" y2="61.5"/>
          <line class="cls-7" x1="91.99" y1="34.81" x2="91.99" y2="61.5"/>
          <path class="cls-7" d="M23.37,84.37s5.72,5.72,37.17,5.72,37.17-5.72,37.17-5.72"/>
          <path class="cls-7" d="M23.37,88.18s5.72,5.72,37.17,5.72,37.17-5.72,37.17-5.72"/>
          <line class="cls-7" x1="99.78" y1="38.62" x2="101.52" y2="38.62"/>
          <line class="cls-7" x1="101.52" y1="38.62" x2="101.52" y2="46.25"/>
          <line class="cls-7" x1="101.52" y1="46.25" x2="99.62" y2="46.25"/>
          <line class="cls-7" x1="21.31" y1="46.25" x2="19.56" y2="46.25"/>
          <line class="cls-7" x1="19.56" y1="46.25" x2="19.56" y2="38.62"/>
          <line class="cls-7" x1="19.56" y1="38.62" x2="21.47" y2="38.62"/>
          <line class="cls-7" x1="23.37" y1="88.18" x2="23.37" y2="84.37"/>
          <line class="cls-7" x1="97.71" y1="88.18" x2="97.71" y2="84.37"/>
          <line class="cls-7" x1="31.95" y1="87.67" x2="31.95" y2="91.48"/>
          <line class="cls-7" x1="43.39" y1="89.38" x2="43.39" y2="93.18"/>
          <line class="cls-7" x1="54.82" y1="90.09" x2="54.82" y2="93.83"/>
          <line class="cls-7" x1="66.26" y1="90.02" x2="66.26" y2="93.83"/>
          <line class="cls-7" x1="77.7" y1="89.38" x2="77.7" y2="93.18"/>
          <line class="cls-7" x1="89.13" y1="87.67" x2="89.13" y2="91.48"/>
          <path class="cls-7" d="M88.18,55.78a9.53,9.53,0,0,1-9.53,9.53"/>
          <ellipse class="cls-7" cx="75.79" cy="65.31" rx="2.86" ry="1.91"/>
          <line class="cls-7" x1="55.78" y1="78.65" x2="55.78" y2="82.46"/>
          <line class="cls-7" x1="60.54" y1="76.74" x2="60.54" y2="84.37"/>
          <line class="cls-7" x1="65.31" y1="78.65" x2="65.31" y2="82.46"/>
          <circle class="cls-7" cx="81.51" cy="79.6" r="2.86"/>
          <circle class="cls-7" cx="39.57" cy="79.6" r="2.86"/>
          <circle class="cls-7" cx="25.35" cy="107.17" r="5.72"/>
          <line class="cls-7" x1="27.8" y1="103.09" x2="22.9" y2="106.36"/>
          <line class="cls-7" x1="22.9" y1="106.36" x2="27.8" y2="107.99"/>
          <line class="cls-7" x1="27.8" y1="107.99" x2="22.9" y2="111.26"/>
          <circle class="cls-7" cx="94.85" cy="104.38" r="2.86"/>
          <circle class="cls-7" cx="94.85" cy="113.91" r="2.86"/>
          <path class="cls-7" d="M44.34,111.05a3.82,3.82,0,0,1,3.81-3.81"/>
          <path class="cls-7" d="M72.93,107.24a3.81,3.81,0,0,1,3.81,3.81"/>
          <line class="cls-7" x1="44.34" y1="111.05" x2="44.34" y2="120.58"/>
          <line class="cls-7" x1="76.74" y1="111.05" x2="76.74" y2="120.58"/>
          <line class="cls-7" x1="48.15" y1="107.24" x2="72.93" y2="107.24"/>
          <path class="cls-7" d="M44.34,107.24a3.81,3.81,0,0,1,3.81-3.81"/>
          <path class="cls-7" d="M72.93,103.43a3.8,3.8,0,0,1,3.81,3.81"/>
          <line class="cls-7" x1="48.15" y1="103.43" x2="72.93" y2="103.43"/>
          <line class="cls-7" x1="50.06" y1="112.96" x2="71.03" y2="112.96"/>
          <line class="cls-7" x1="50.06" y1="116.77" x2="71.03" y2="116.77"/>
          <path class="cls-7" d="M.5,86.27A11.43,11.43,0,0,1,11.94,74.84"/>
          <line class="cls-7" x1="11.94" y1="74.84" x2="19.56" y2="74.84"/>
          <line class="cls-7" x1="0.5" y1="86.27" x2="0.5" y2="95.8"/>
          <path class="cls-7" d="M120.58,86.27a11.42,11.42,0,0,0-11.43-11.43"/>
          <line class="cls-7" x1="109.15" y1="74.84" x2="101.52" y2="74.84"/>
          <line class="cls-7" x1="120.58" y1="86.27" x2="120.58" y2="95.8"/>
        </g>
      </g>
      <path class="cls-4" d="M141,120.58V13.86h20.32V53.22a29.31,29.31,0,0,1,23.84-11.84c19.68,0,34.24,15.36,34.24,40.48,0,25.92-14.72,40.64-34.24,40.64a30,30,0,0,1-23.84-11.84v9.92Zm37.92-16.16c11.68,0,19.52-9.12,19.52-22.56,0-13.28-7.84-22.4-19.52-22.4-6.72,0-14.08,3.84-17.6,9V95.78C164.83,100.74,172.19,104.42,178.91,104.42Z"/>
      <path class="cls-4" d="M232.83,22.82a12.08,12.08,0,0,1,24.16,0,12.08,12.08,0,1,1-24.16,0Zm1.92,97.76V43.3h20.32v77.28Z"/>
      <path class="cls-4" d="M279.39,101.22V61.06h-12.8V43.3h12.8V22.18h20.32V43.3h15.68V61.06H299.71V95.78c0,5,2.56,8.64,7,8.64,3,0,5.92-1.12,7-2.4l4.32,15.52c-3,2.72-8.48,5-17,5C286.91,122.5,279.39,115.14,279.39,101.22Z"/>
      <path class="cls-4" d="M425.15,120.58V71.78c0-7.2-3.2-12.32-11.52-12.32-7.2,0-13.12,4.8-16,9v52.16H377.15V71.78c0-7.2-3.2-12.32-11.52-12.32-7,0-13,4.8-16,9v52.16H329.31V43.3h20.32v9.92c3.36-4.48,13.44-11.84,25.28-11.84,11.36,0,18.72,5.28,21.44,13.92,4.48-6.88,14.72-13.92,26.56-13.92,14.24,0,22.72,7.52,22.72,23.36v55.84Z"/>
      <path class="cls-4" d="M460.83,81.86c0-22.4,16.64-40.48,40-40.48,23.2,0,38.72,17.28,38.72,42.4v4.8H482.11c1.44,9.44,9.12,17.28,22.24,17.28,6.56,0,15.52-2.72,20.48-7.52L534,111.78c-7.68,7-19.84,10.72-31.84,10.72C478.59,122.5,460.83,106.66,460.83,81.86Zm40-23.84c-12.64,0-18.08,8.8-18.88,16.48H520C519.39,67.14,514.27,58,500.83,58Z"/>
      <path class="cls-4" d="M554.27,120.58V43.3h20.32V53.7c5.6-6.72,15-12.32,24.64-12.32V61.22a26,26,0,0,0-5.6-.48c-6.72,0-15.68,3.84-19,8.8v51Z"/>
      <path class="cls-4" d="M610.27,140.42l9.12-14.56c6.24,6.72,14.56,9.44,24.16,9.44,9.76,0,21.44-4.16,21.44-19.84v-7.52c-6.08,7.68-14.4,12-24,12-19.2,0-34.08-13.44-34.08-39.2,0-25.28,14.56-39.36,34.08-39.36a29.61,29.61,0,0,1,24,11.84V43.3h20.32v72.16c0,29.28-22.72,36.48-41.76,36.48C630.43,151.94,620,148.9,610.27,140.42ZM665,93.22V68.1c-3.52-5-10.88-8.64-17.44-8.64-11.68,0-19.68,8-19.68,21.28s8,21.28,19.68,21.28C654.11,102,661.47,98.18,665,93.22Z"/>
      <path class="cls-4" d="M700.5,81.86c0-22.4,16.65-40.48,40-40.48,23.2,0,38.72,17.28,38.72,42.4v4.8H721.79c1.44,9.44,9.12,17.28,22.24,17.28,6.56,0,15.52-2.72,20.48-7.52l9.12,13.44c-7.68,7-19.84,10.72-31.84,10.72C718.27,122.5,700.5,106.66,700.5,81.86Zm40-23.84c-12.64,0-18.08,8.8-18.88,16.48h38.08C759.07,67.14,754,58,740.51,58Z"/>
    </g>
  </g>
</svg>
